Coordinates
version=1
nRows=17
nColumns=40
inDegrees=yes

Units are S.I. units (second, meters, Newtons, ...)
Angles are in degrees.

endheader
time	pelvis_tilt	pelvis_list	pelvis_rotation	pelvis_tx	pelvis_ty	pelvis_tz	hip_flexion_r	hip_adduction_r	hip_rotation_r	knee_angle_r	knee_angle_r_beta	ankle_angle_r	subtalar_angle_r	mtp_angle_r	hip_flexion_l	hip_adduction_l	hip_rotation_l	knee_angle_l	knee_angle_l_beta	ankle_angle_l	subtalar_angle_l	mtp_angle_l	lumbar_extension	lumbar_bending	lumbar_rotation	arm_flex_r	arm_add_r	arm_rot_r	elbow_flex_r	pro_sup_r	wrist_flex_r	wrist_dev_r	arm_flex_l	arm_add_l	arm_rot_l	elbow_flex_l	pro_sup_l	wrist_flex_l	wrist_dev_l
     13.16500000	     -4.21590748	     -5.36775131	      9.96397113	      0.99609255	      0.92245733	      0.54008495	      4.41131474	      6.36342273	    -18.81491635	     13.33764828	     13.33764828	     15.50586158	     -5.29069351	     -4.34607160	     28.61977652	     -9.33518451	      2.53159937	     17.69282789	     17.69282789	      5.20551511	     -1.35335492	      8.37059415	     -8.52182704	      4.07246991	      3.80700796	     57.72703497	    -16.32078551	     -0.35492152	     83.52284333	     44.66239144	      0.00000000	      0.00000000	    -13.06661061	    -10.55107296	     26.78834615	     35.76076099	     43.46792412	      0.00000000	      0.00000000
     13.18950000	     -4.56393059	     -5.47506622	      9.90455512	      0.99653359	      0.92172485	      0.53669780	      4.23683924	      6.29282626	    -18.76468064	     13.04870843	     13.04870843	     15.62106377	     -5.13439276	     -4.37827176	     28.65406343	     -9.19840273	      2.21314557	     17.48313569	     17.48313569	      5.03345735	     -1.04083122	      8.00962559	     -8.20538032	      3.95888463	      3.90149262	     57.90344819	    -15.85395667	     -0.09485340	     84.00020844	     44.64176210	      0.00000000	      0.00000000	    -12.57685269	    -10.72305093	     26.73390307	     35.75315190	     43.48802253	      0.00000000	      0.00000000
     13.21400000	     -4.67425340	     -5.62989257	      9.73539656	      0.99768575	      0.92129019	      0.53311161	      3.66198036	      6.32498461	    -18.70172407	     12.55560553	     12.55560553	     15.70412989	     -4.61970859	     -4.41578968	     28.18980434	     -9.26187649	      1.53625587	     17.02212920	     17.02212920	      2.83811306	     -0.88647976	      1.86600872	     -8.20530687	      3.93603251	      4.24189442	     57.38219170	    -16.10643886	      0.56270540	     86.77434196	     44.58246680	      0.00000000	      0.00000000	    -11.76948989	    -10.59510266	     26.61144684	     34.72456342	     43.64728584	      0.00000000	      0.00000000
     13.23850000	     -4.87913008	     -5.56432102	      9.61240765	      0.99880726	      0.92100875	      0.52913844	      3.33776631	      6.03280954	    -18.58059975	     12.42934382	     12.42934382	     15.79929083	     -4.56221623	     -4.37910869	     28.09490945	     -8.97894030	      1.33453536	     17.44946715	     17.44946715	      2.88496769	     -1.17893409	      1.58565694	     -7.99488712	      3.63281772	      4.31507470	     57.25337424	    -15.60573985	      0.80646360	     86.96218108	     44.56975002	      0.00000000	      0.00000000	    -11.21246863	    -10.98995370	     26.51436984	     34.74483622	     43.66898168	      0.00000000	      0.00000000
     13.26300000	     -5.03908814	     -5.46171329	      9.36536056	      1.00016911	      0.92092507	      0.52498295	      2.94465427	      5.68692761	    -18.35625745	     12.30456479	     12.30456479	     15.87892566	     -4.42488325	     -4.30767670	     28.00800505	     -8.70731312	      1.09837157	     18.15989062	     18.15989062	      2.98785256	     -1.72661142	      1.12068315	     -7.86998135	      3.32367176	      4.30911855	     57.09692528	    -15.03995822	      1.11093025	     87.33606275	     44.54928209	      0.00000000	      0.00000000	    -10.66698930	    -11.34684154	     26.42662339	     34.72518519	     43.69028546	      0.00000000	      0.00000000
     13.28750000	     -5.11083604	     -5.51255420	      9.15135502	      1.00170498	      0.92083080	      0.52032636	      2.52659569	      5.44945344	    -18.33680361	     12.32959341	     12.32959341	     16.29125133	     -3.96072847	     -3.30478298	     27.73234835	     -8.45393504	      1.49297520	     18.54344011	     18.54344011	      1.49204506	     -3.72872389	     -3.16366668	     -7.90458112	      3.32158069	      4.55065771	     56.52016278	    -15.34326606	      1.77580790	     89.78557806	     44.50780415	      0.00000000	      0.00000000	     -9.88217047	    -11.38119800	     26.14540503	     33.93316725	     43.85547007	      0.00000000	      0.00000000
     13.31200000	     -5.18039587	     -5.37808571	      8.86331534	      1.00321989	      0.92107326	      0.51560974	      2.09089853	      5.01403214	    -18.08993693	     12.32927631	     12.32927631	     16.28331432	     -3.86389796	     -3.20922752	     27.57460079	     -8.12670920	      1.42956933	     19.37373246	     19.37373246	      1.85080902	     -4.49787115	     -3.43514923	     -7.87784082	      3.09449419	      4.55790358	     56.42920539	    -14.86696086	      2.02762732	     89.99930213	     44.49768718	      0.00000000	      0.00000000	     -9.29252291	    -11.77146204	     26.04974172	     33.95030631	     43.88306050	      0.00000000	      0.00000000
     13.33650000	     -5.30352484	     -5.24951673	      8.56547648	      1.00471258	      0.92143470	      0.51067483	      1.72775385	      4.55444826	    -17.89226101	     12.33530833	     12.33530833	     16.19934420	     -3.78491583	     -3.11197773	     27.37082137	     -7.78718901	      1.31461834	     19.97652537	     19.97652537	      2.24819524	     -5.12576573	     -3.61862060	     -7.77608084	      2.93326391	      4.62217493	     56.34296233	    -14.47262783	      2.27088361	     90.13860333	     44.48745833	      0.00000000	      0.00000000	     -8.58333991	    -12.22261537	     25.92286823	     34.01692604	     43.91090863	      0.00000000	      0.00000000
     13.36100000	     -5.38878935	     -5.14926876	      8.27878660	      1.00604958	      0.92186155	      0.50549096	      1.42509995	      4.06796149	    -17.77050077	     12.51117445	     12.51117445	     16.15922948	     -3.61192078	     -2.85695421	     27.19922287	     -7.32893572	      1.80712754	     20.66020336	     20.66020336	      2.72252421	     -6.65706521	     -3.22095106	     -7.77297184	      2.86346612	      4.67594540	     56.32148164	    -14.39004141	      2.76157131	     90.62367153	     44.47233331	      0.00000000	      0.00000000	     -7.92033920	    -12.54762138	     25.77559020	     33.99839758	     43.96533125	      0.00000000	      0.00000000
     13.38550000	     -5.46565656	     -5.01881725	      7.95952172	      1.00743494	      0.92248982	      0.50035772	      1.07389334	      3.57226605	    -17.60536879	     12.59560225	     12.59560225	     15.99426923	     -3.52510428	     -2.75888935	     26.87973614	     -6.98347785	      1.64555260	     21.06728770	     21.06728770	      3.24295672	     -7.12623735	     -3.32604697	     -7.71624218	      2.76892269	      4.75509839	     56.27477952	    -14.15214144	      2.93690982	     90.61805640	     44.46960169	      0.00000000	      0.00000000	     -7.18323422	    -12.99330161	     25.63984502	     34.09206474	     43.99524281	      0.00000000	      0.00000000
     13.41000000	     -5.52414051	     -4.90309198	      7.64119739	      1.00869377	      0.92315307	      0.49520025	      0.74961148	      3.07126619	    -17.45600005	     12.73398067	     12.73398067	     15.78597552	     -3.41750521	     -2.67466314	     26.54148128	     -6.63372113	      1.56039878	     21.41747294	     21.41747294	      3.76633862	     -7.59858131	     -3.35020581	     -7.68882509	      2.74323959	      4.84939550	     56.29198992	    -13.98598523	      3.08708367	     90.53068283	     44.47051519	      0.00000000	      0.00000000	     -6.42757482	    -13.43684013	     25.50248978	     34.20287114	     44.02546732	      0.00000000	      0.00000000
     13.43450000	     -5.59826148	     -4.81225810	      7.33956493	      1.00980178	      0.92384913	      0.49004605	      0.47352457	      2.58469637	    -17.33839982	     12.89895560	     12.89895560	     15.53894628	     -3.29669953	     -2.60671439	     26.18692769	     -6.29470494	      1.47834724	     21.64799886	     21.64799886	      4.27523513	     -8.01212119	     -3.32450127	     -7.64618729	      2.76779374	      4.93411980	     56.32691777	    -13.88512782	      3.19973696	     90.33980022	     44.47571565	      0.00000000	      0.00000000	     -5.66934518	    -13.88033519	     25.36725865	     34.32579005	     44.05484562	      0.00000000	      0.00000000
     13.45900000	     -5.69130030	     -4.61346466	      7.02789372	      1.01069876	      0.92461862	      0.48480989	      0.32441625	      1.88216713	    -17.51486189	     13.28948551	     13.28948551	     15.35898174	     -2.72844749	     -2.73495390	     25.76234439	     -5.74583356	      1.66174708	     21.74727161	     21.74727161	      5.06667556	     -8.83080581	     -1.94667109	     -7.54580652	      2.68416448	      5.08460321	     56.58878953	    -14.04592938	      3.39136489	     89.00896528	     44.53407033	      0.00000000	      0.00000000	     -4.89360851	    -14.24394884	     25.32396954	     34.42126006	     44.10396397	      0.00000000	      0.00000000
     13.48350000	     -5.76034071	     -4.56496244	      6.73652492	      1.01155087	      0.92530491	      0.47985941	      0.07933354	      1.44755044	    -17.41687924	     13.45014028	     13.45014028	     15.06383952	     -2.61996628	     -2.68569516	     25.37893270	     -5.47401453	      1.45363066	     21.85103265	     21.85103265	      5.53370862	     -9.01949247	     -1.93862999	     -7.52814097	      2.76717138	      5.08381528	     56.61690628	    -13.94619462	      3.43371680	     88.68829655	     44.54630804	      0.00000000	      0.00000000	     -4.14000599	    -14.70580270	     25.20103543	     34.54621335	     44.13264813	      0.00000000	      0.00000000
     13.50800000	     -5.81002867	     -4.48226470	      6.42608663	      1.01229410	      0.92598750	      0.47501565	     -0.15425354	      0.96487254	    -17.32018782	     13.65725188	     13.65725188	     14.78459897	     -2.44015990	     -2.69080489	     24.94234384	     -5.17063755	      1.22807043	     21.89092584	     21.89092584	      5.97212911	     -9.21750215	     -1.86228275	     -7.50008816	      2.83013124	      5.17921045	     56.61730681	    -13.97563953	      3.40903907	     88.01890780	     44.57206605	      0.00000000	      0.00000000	     -3.34969242	    -15.15404183	     25.08191648	     34.69258266	     44.16177172	      0.00000000	      0.00000000
     13.53250000	     -5.90180781	     -4.34340668	      6.10853407	      1.01286200	      0.92655769	      0.47013435	     -0.28429877	      0.32471195	    -17.56517417	     13.99532147	     13.99532147	     14.53044492	     -1.68559615	     -3.17531437	     24.54537101	     -4.76110201	      1.12200055	     21.94021305	     21.94021305	      6.70178269	     -9.48855591	     -0.77578409	     -7.32150870	      2.84600764	      5.00156886	     57.17278853	    -13.59914092	      3.23816691	     84.87805542	     44.70435014	      0.00000000	      0.00000000	     -2.72359681	    -15.53314783	     25.30723588	     34.62135904	     44.18348488	      0.00000000	      0.00000000
     13.55700000	     -5.94698245	     -4.26265411	      5.76747791	      1.01336122	      0.92711069	      0.46553637	     -0.45089167	     -0.17389758	    -17.46891917	     14.27884719	     14.27884719	     14.19576101	     -1.46607045	     -3.34356167	     24.12085341	     -4.47526734	      0.87389636	     21.97982428	     21.97982428	      7.18919464	     -9.59766449	     -0.41900234	     -7.25431799	      2.91095057	      5.05539552	     57.27802146	    -13.56852676	      3.17001938	     83.17375464	     44.77762686	      0.00000000	      0.00000000	     -2.02664438	    -15.96020317	     25.29729214	     34.79875680	     44.22419964	      0.00000000	      0.00000000
